<svg xmlns="http://www.w3.org/2000/svg" xml:space="preserve" viewBox="0 0 1298.45 271.46"><g transform="translate(-.033 -49.589)"><circle cx="135.055" cy="187.518" r="123.766" style="fill:#fff;fill-opacity:.926366;stroke-width:.278962"/><path d="M123.088 321.679c-46.714-3.844-89.248-33.404-109.623-76.188-20.182-42.377-17.002-91.734 8.45-131.15 2.111-3.27 4.13-6.307 4.486-6.75s2.217-2.778 4.137-5.191c16.27-20.455 41.324-37.065 67.078-44.47 28.758-8.267 60.197-6.628 88.02 4.59 34.185 13.782 62.165 42.274 75.288 76.665 20.497 53.717 4.749 114.674-39.115 151.408-21.503 18.007-47.463 28.698-75.596 31.13-9.097.786-13.13.778-23.125-.044m-23.72-74.669c3.14-2.506 7.437-5.849 9.55-7.429 4.515-3.38 4.484-4.22-.25-6.619-2.72-1.379-3.292-1.987-3.3-3.512-.006-1.015-.034-7.616-.06-14.67l-.049-12.823 8.16-.19 8.158-.19v27.598l-3.142 3.011c-1.862 1.785-2.993 3.4-2.776 3.965.201.524 3.361 2.123 7.023 3.554s8.176 3.285 10.032 4.12c12.053 5.422 17.381 7.741 17.786 7.741.256 0 3.102-1.898 6.325-4.219a833 833 0 0 1 10.252-7.255c2.414-1.67 4.403-3.54 4.419-4.155.017-.727-1.505-1.835-4.359-3.17l-4.387-2.054v-29.799l4.18-6.903c2.3-3.797 5.628-9.182 7.398-11.966l3.216-5.062-7.397-.19-7.397-.192v-33.723l4.218 2.11c2.32 1.16 5.94 3.146 8.045 4.412l3.826 2.303.297 40.313c.206 27.877.542 41.226 1.09 43.27 1.266 4.716 3.171 8.352 5.607 10.697 2.387 2.3 9.561 5.583 12.198 5.583.886 0 4.617-2.258 8.641-5.23 3.895-2.878 9.122-6.722 11.616-8.542 2.493-1.821 4.533-3.669 4.533-4.106s-1.115-1.529-2.478-2.426c-3.305-2.177-4.982-4.584-5.67-8.14-.312-1.618-.58-20.11-.597-41.096-.029-37.337 0-38.178 1.32-39.31.743-.635 1.35-1.588 1.35-2.117 0-.579-5.703-3.785-14.342-8.062-7.889-3.905-16.077-8.07-18.196-9.253l-3.852-2.152-5.26 3.353c-7.893 5.032-20.378 12.338-21.085 12.338-.905 0-19.613-9.728-24.725-12.857-2.397-1.467-4.647-2.667-5-2.667s-2.701 1.319-5.219 2.931c-6.124 3.922-17.988 10.568-18.865 10.568-.941 0-12.216-4.986-21.912-9.69-7.987-3.875-9.073-4.247-9.472-3.243-.124.311-4.63 3.957-10.012 8.102s-10.166 7.85-10.63 8.235c-2.153 1.783-1.176 2.566 11.811 9.463l4.219 2.24v79.268l-3.881 2.65c-2.244 1.533-3.881 3.151-3.881 3.836 0 .903 2.726 2.276 11.474 5.776 6.31 2.526 14.36 5.824 17.886 7.33 3.527 1.506 6.737 2.752 7.133 2.77.396.017 3.29-2.02 6.43-4.525zm1.07-18.561c-1.064-.782-1.135-4.01-.973-43.704l.176-42.86 1.519-.215 1.518-.216v43.92c0 24.155-.245 43.919-.546 43.919-.3 0-1.062-.38-1.694-.844zm57.756.02c-1.498-.722-1.519-.916-1.519-13.79v-13.06h3.375v13.837c0 7.61-.076 13.816-.169 13.791s-.852-.375-1.687-.778zm-53.203-36.974c.125-2.042.264-13.839.307-26.215l.08-22.503 6.515 3.481c10.676 5.705 9.638 3.764 9.663 18.07l.02 12.318h-2.341c-2.519 0-2.212-.37-9.723 11.693-1.346 2.162-2.965 4.592-3.598 5.4-1.118 1.426-1.144 1.362-.924-2.244zm51.841-32.23.18-17.38 1.52-.215 1.518-.216v35.192h-3.398z" style="fill:#014eb3;fill-opacity:1;stroke:none;stroke-width:2.55103"/><g fill="#fff"><path d="M473.362 136.197V51.81h13.507l15.951 45.152q1.544 4.245 2.83 8.49 1.415 4.245 2.83 9.005h.515q1.415-4.76 2.701-9.005t2.702-8.49l15.951-45.152h13.378v84.387h-10.033V89.758q0-3.73.257-8.361t.514-9.134q.386-4.63.772-8.361h-.514l-6.56 20.325-15.823 43.608h-7.847L488.67 84.227l-6.56-20.325h-.515q.386 3.73.643 8.361.386 4.503.643 9.134.258 4.63.258 8.361v46.439zm116.804 1.544q-7.59 0-14.279-3.86-6.56-3.859-10.677-11.191-3.988-7.333-3.988-17.624 0-10.548 3.988-17.88 4.117-7.333 10.677-11.192 6.69-3.86 14.28-3.86 7.717 0 14.278 3.86 6.56 3.86 10.548 11.191 4.117 7.333 4.117 17.881 0 10.291-4.117 17.624-3.987 7.332-10.548 11.191-6.56 3.86-14.279 3.86m0-8.748q5.403 0 9.52-2.959 4.116-3.087 6.303-8.49t2.187-12.478q0-7.203-2.187-12.606-2.187-5.532-6.304-8.49-4.116-3.088-9.519-3.088t-9.52 3.088q-3.987 2.958-6.303 8.49-2.186 5.403-2.186 12.606 0 7.075 2.186 12.478 2.316 5.403 6.304 8.49 4.116 2.96 9.52 2.96m45.41 7.204V73.678h8.747l.9 9.005h.386q4.503-4.502 9.52-7.46 5.017-3.088 11.449-3.088 9.905 0 14.407 6.303 4.631 6.175 4.631 18.138v39.621h-10.548V97.991q0-8.876-2.83-12.735-2.702-3.988-9.005-3.988-4.76 0-8.619 2.444-3.73 2.444-8.49 7.204v45.281zm95.707 1.544q-8.361 0-15.308-3.86-6.818-3.987-10.806-11.191-3.987-7.333-3.987-17.752 0-10.163 4.116-17.495 4.117-7.333 10.548-11.32 6.432-3.988 13.636-3.988 7.976 0 13.507 3.73 5.66 3.602 8.49 10.163 2.83 6.56 2.83 15.436 0 1.673-.128 3.216 0 1.544-.386 3.088h-45.024v-8.362h36.02q0-9.005-3.989-13.764-3.859-4.888-11.191-4.888-4.245 0-8.362 2.444-4.116 2.315-6.818 7.59-2.572 5.274-2.572 14.021 0 7.976 2.701 13.378 2.83 5.403 7.59 8.233 4.76 2.702 10.42 2.702 4.502 0 8.361-1.287 3.988-1.286 7.204-3.473l3.859 6.947q-4.116 2.83-9.262 4.63-5.017 1.802-11.449 1.802m56.859-.386q-9.906 0-13.893-5.789t-3.988-15.05V82.296h-9.262v-7.975l9.776-.644 1.287-20.067h8.876v20.067h16.98v8.62h-16.98v34.346q0 5.66 2.058 8.876 2.187 3.216 7.59 3.216 1.672 0 3.473-.257 1.801-.386 3.602-1.287l2.315 7.461q-2.444 1.158-5.531 1.93t-6.303.772m35.504.386q-5.146 0-9.39-2.059-4.117-2.186-6.561-6.046-2.444-3.987-2.444-9.648 0-10.548 9.262-15.95 9.262-5.404 29.33-7.59-.13-3.86-1.287-7.462-1.03-3.601-3.86-5.788t-7.846-2.187q-5.403 0-10.163 2.058-4.76 1.93-8.49 4.374l-4.116-7.204q2.83-1.93 6.689-3.73 3.859-1.93 8.361-3.088 4.503-1.286 9.52-1.286 7.59 0 12.349 3.216 4.888 3.087 7.075 8.876 2.316 5.789 2.316 13.636v38.334h-8.748l-.9-7.461h-.386q-4.503 3.73-9.648 6.432-5.146 2.573-11.063 2.573m2.959-8.748q4.63 0 8.618-2.058 4.117-2.058 8.62-6.046v-16.852q-10.55 1.287-16.724 3.345-6.046 1.93-8.747 4.888-2.702 2.959-2.702 7.075 0 5.146 3.216 7.461 3.216 2.187 7.719 2.187m47.467 7.204V73.678h8.748l.9 11.32h.386q3.088-5.917 7.719-9.39 4.63-3.473 10.033-3.473 2.059 0 3.602.257 1.544.257 3.088 1.03l-2.316 9.004q-1.415-.386-2.701-.515-1.158-.257-3.088-.257-3.987 0-8.361 3.216-4.245 3.216-7.461 11.192v40.135zm44.638 0V73.678h10.549v62.519zm5.274-75.382q-3.087 0-5.145-1.93-1.93-1.93-1.93-5.017t1.93-5.017q2.058-1.93 5.145-1.93 3.088 0 5.017 1.93 2.058 1.93 2.058 5.017t-2.058 5.017q-1.93 1.93-5.017 1.93m44.638 76.926q-9.905 0-14.536-6.175-4.502-6.303-4.502-18.267V73.68h10.548v38.205q0 8.748 2.701 12.735 2.83 3.86 9.005 3.86 4.76 0 8.49-2.445 3.86-2.572 8.362-7.975v-44.38h10.548v62.518h-8.747l-.9-9.777h-.387q-4.245 5.146-9.262 8.233-4.888 3.088-11.32 3.088m51.713-1.544V73.678h8.748l.9 9.005h.386q4.116-4.374 8.876-7.46 4.888-3.088 10.548-3.088 7.204 0 11.192 3.216 4.116 3.216 6.046 8.747 4.888-5.403 9.905-8.619 5.017-3.344 10.677-3.344 9.777 0 14.408 6.303 4.63 6.175 4.63 18.138v39.621h-10.548V97.991q0-8.876-2.83-12.735-2.83-3.988-8.747-3.988-3.73 0-7.59 2.444-3.73 2.316-8.104 7.204v45.281h-10.549V97.991q0-8.876-2.83-12.735-2.83-3.988-8.876-3.988-7.075 0-15.694 9.648v45.281z" fill="#fff" transform="scale(1.02992 .97095)"/><path d="M472.461 304.284v-84.13h26.886q8.747 0 15.437 2.058 6.818 1.93 10.677 6.432 3.988 4.502 3.988 12.22 0 6.432-3.088 11.45-2.958 4.888-8.619 6.817v.515q7.461 1.543 11.707 6.303 4.373 4.631 4.373 12.993 0 8.618-4.245 14.279-4.116 5.66-11.449 8.361-7.332 2.702-16.594 2.702zm14.923-49.398h10.677q8.747 0 12.735-3.216t3.988-8.619q0-6.174-4.117-8.747-4.116-2.573-12.35-2.573h-10.933zm0 37.82h12.606q9.262 0 14.28-3.345 5.016-3.473 5.016-10.548 0-6.69-4.888-9.648-4.889-3.087-14.408-3.087h-12.606zm74.996 12.864q-5.274 0-8.49-2.058-3.087-2.187-4.502-6.175t-1.415-9.52v-74.353h14.793v75.126q0 2.83 1.03 3.859 1.028 1.029 2.315 1.029h.9q.515-.129 1.287-.257l1.93 11.063q-1.287.514-3.345.9-1.93.386-4.503.386m46.31.257q-7.847 0-14.665-3.859-6.818-3.988-11.063-11.32-4.245-7.461-4.245-17.881 0-10.548 4.245-17.88 4.245-7.462 11.063-11.321 6.818-3.988 14.665-3.988 7.976 0 14.794 3.988 6.818 3.86 11.063 11.32 4.245 7.333 4.245 17.881 0 10.42-4.245 17.88-4.245 7.333-11.063 11.321-6.818 3.86-14.794 3.86m0-12.092q4.631 0 7.976-2.573t5.145-7.332 1.801-11.063-1.8-11.063q-1.802-4.76-5.146-7.332-3.345-2.702-7.976-2.702-4.63 0-7.975 2.702-3.216 2.572-5.017 7.332t-1.801 11.063 1.8 11.063q1.802 4.76 5.018 7.332 3.344 2.573 7.975 2.573m71.395 12.092q-8.748 0-15.694-3.859-6.947-3.988-11.063-11.32-3.988-7.461-3.988-17.881 0-10.548 4.374-17.88 4.374-7.462 11.577-11.321 7.333-3.988 15.694-3.988 6.046 0 10.549 2.058 4.63 1.93 7.975 5.017l-7.075 9.262q-2.058-1.93-4.76-3.087-2.572-1.158-5.917-1.158-5.017 0-8.876 2.702-3.86 2.572-6.175 7.332-2.187 4.631-2.187 11.063 0 6.303 2.187 11.063 2.187 4.63 5.918 7.332 3.859 2.573 8.876 2.573 3.73 0 6.946-1.415 3.345-1.415 5.918-3.602l6.046 9.134q-3.988 3.601-9.262 5.788-5.146 2.187-11.063 2.187m32.803-1.543v-90.82h14.665v56.602h.386l23.155-28.944h16.337l-21.483 25.856 23.67 37.306h-16.08l-16.209-27.4-9.776 11.191v16.209zm94.163 0v-84.13h50.684v12.606h-35.761v21.483h30.23v12.607h-30.23v24.827h37.048v12.607zm55.444 0 20.068-32.932-18.782-30.23h15.952l7.075 11.963q1.415 2.573 2.83 5.274t2.958 5.403h.515q1.158-2.701 2.444-5.403t2.444-5.274l6.046-11.963h15.308l-18.652 31.902 20.067 31.26h-15.95l-7.72-12.478q-1.543-2.83-3.215-5.66-1.544-2.83-3.216-5.532h-.515q-1.415 2.701-2.83 5.531-1.415 2.702-2.701 5.66l-6.69 12.479zm69.465 24.956v-88.118h12.22l1.03 6.689h.514q3.988-3.473 8.877-5.789 4.888-2.444 10.162-2.444 7.847 0 13.379 3.988t8.49 11.192 2.958 16.98q0 10.806-3.859 18.395t-10.034 11.706q-6.046 3.988-13.12 3.988-4.117 0-8.234-1.8-4.116-1.802-7.975-5.146l.386 10.548v19.81zm27.529-35.633q4.245 0 7.59-2.445t5.274-7.203q1.93-4.889 1.93-12.092 0-6.304-1.416-10.806-1.415-4.503-4.502-6.818-2.959-2.444-7.718-2.444-3.474 0-6.818 1.8-3.345 1.673-7.075 5.275v29.458q3.473 2.83 6.689 4.117 3.344 1.158 6.046 1.158m59.431 11.963q-5.274 0-8.49-2.058-3.087-2.187-4.503-6.175t-1.415-9.52v-74.353h14.794v75.126q0 2.83 1.029 3.859 1.03 1.029 2.316 1.029h.9q.515-.129 1.286-.257l1.93 11.063q-1.286.514-3.345.9-1.93.386-4.502.386m46.31.257q-7.847 0-14.665-3.859-6.818-3.988-11.063-11.32-4.245-7.461-4.245-17.881 0-10.548 4.245-17.88 4.245-7.462 11.063-11.321 6.818-3.988 14.665-3.988 7.976 0 14.794 3.988 6.817 3.86 11.062 11.32 4.245 7.333 4.245 17.881 0 10.42-4.245 17.88-4.245 7.333-11.063 11.321-6.817 3.86-14.793 3.86m0-12.092q4.631 0 7.976-2.573t5.145-7.332 1.801-11.063-1.8-11.063q-1.802-4.76-5.146-7.332-3.345-2.702-7.976-2.702t-7.976 2.702q-3.216 2.572-5.016 7.332-1.802 4.76-1.802 11.063t1.802 11.063 5.016 7.332q3.345 2.573 7.976 2.573m44.766 10.549v-63.162h12.221l1.03 11.191h.514q3.344-6.174 7.975-9.39 4.76-3.345 9.906-3.345 2.444 0 4.116.257 1.672.258 3.087 1.03l-2.958 12.606q-1.544-.386-2.83-.514-1.287-.258-3.345-.258-3.73 0-7.847 2.959-4.116 2.83-7.075 10.034v38.592zm73.839 1.543q-8.876 0-16.08-3.859-7.075-3.988-11.192-11.32-4.116-7.461-4.116-18.01 0-10.29 4.245-17.623 4.245-7.461 10.934-11.45 6.69-3.987 14.15-3.987 8.62 0 14.408 3.86 5.79 3.858 8.62 10.676 2.958 6.69 2.958 15.437 0 2.058-.257 3.988-.13 1.93-.515 3.73h-43.48v-11.32h31.13q0-6.818-3.087-10.677-3.087-3.988-9.519-3.988-3.602 0-7.075 1.93-3.345 1.93-5.66 6.56-2.187 4.631-2.187 12.864 0 7.461 2.573 12.221 2.572 4.631 6.818 6.947 4.245 2.186 9.133 2.186 4.116 0 7.718-1.157 3.73-1.158 6.947-3.216l5.145 9.519q-4.373 3.087-10.034 4.888-5.531 1.801-11.577 1.801m38.077-1.543v-63.162h12.22l1.03 11.191h.515q3.344-6.174 7.975-9.39 4.76-3.345 9.905-3.345 2.444 0 4.117.257 1.672.258 3.087 1.03l-2.959 12.606q-1.543-.386-2.83-.514-1.286-.258-3.344-.258-3.73 0-7.847 2.959-4.117 2.83-7.075 10.034v38.592z" fill="#fff" transform="scale(1.02992 .97095)"/></g><path d="M377.095 66.911h2.217v241.213h-2.217z" fill="#fff" style="fill-opacity:1;stroke-width:.617067"/></g></svg>
